<svg viewBox="0 0 1024 1024" xmlns="http://www.w3.org/2000/svg"><path d="M914.182 251.621 672.174 10.295A34.086 34.086 0 0 0 645.587.07H134.304a34.086 34.086 0 0 0-34.086 34.085v954.396a34.086 34.086 0 0 0 34.086 34.086H889.64a34.086 34.086 0 0 0 34.086-34.086V272.754a34.086 34.086 0 0 0-9.544-21.133zm-92.713 3.409H666.721V100.963zm-653.08 699.435V68.241h430.16v220.874a34.086 34.086 0 0 0 34.086 34.086h222.92v631.264z" fill="#666"/><path d="M713.759 545.439H548.103V379.783a34.086 34.086 0 0 0-68.171 0v165.656h-175.2a34.086 34.086 0 0 0-34.086 34.085 33.404 33.404 0 0 0 4.772 16.361 34.086 34.086 0 0 0 31.359 21.133h170.428v170.428a34.086 34.086 0 1 0 68.17 0V618.382h170.429a34.086 34.086 0 0 0 34.085-34.086 33.404 33.404 0 0 0-4.772-16.36 34.086 34.086 0 0 0-31.358-22.497z" fill="#666"/></svg>