<svg xmlns="http://www.w3.org/2000/svg" viewBox="0 -100 1200 1200"><path d="m940 596-76-57.6c.8-8 1.6-16.8 1.6-26.4s-.8-18.4-1.6-26.4l76-57.6c20.8-16 26.4-44 12.8-68L868 216.8c-9.6-16.8-28-27.2-47.2-27.2-6.4 0-12 .8-18.4 3.2L712 228c-15.2-10.4-31.2-19.2-47.2-26.4l-13.6-92c-4-26.4-26.4-45.6-53.6-45.6H426.4c-27.2 0-49.6 19.2-53.6 44.8L360 201.6c-16 7.2-31.2 16-47.2 26.4l-90.4-35.2c-6.4-2.4-12.8-3.2-19.2-3.2-19.2 0-37.6 9.6-46.4 26.4L71.2 360c-13.6 22.4-8 52 12.8 68l76 57.6c-.8 9.6-1.6 18.4-1.6 26.4s0 16.8 1.6 26.4L84 596c-20.8 16-26.4 44-12.8 68L156 807.2c9.6 16.8 28 27.2 47.2 27.2 6.4 0 12-.8 18.4-3.2L312 796c15.2 10.4 31.2 19.2 47.2 26.4l13.6 92C376 940 399.2 960 426.4 960h171.2c27.2 0 49.6-19.2 53.6-44.8l13.6-92.8c16-7.2 31.2-16 47.2-26.4l90.4 35.2c6.4 2.4 12.8 3.2 19.2 3.2 19.2 0 37.6-9.6 46.4-26.4l85.6-144.8C966.4 640 960.8 612 940 596zm-236-84c0 105.6-86.4 192-192 192s-192-86.4-192-192 86.4-192 192-192 192 86.4 192 192z"/></svg>